# xmcd
#
# Track frame offsets:
#	150
#	12840
#	24990
#	36597
#	49114
#	59777
#	68320
#	81192
#	93515
#	104112
#	115797
#	127000
#	142560
#	157325
#
# Disc length: 2315 seconds
# Revision: 6
# Processed by: cddbd v1.5.2PL0 Copyright (c) Steve Scherf et al.
# Submitted via: dBpowerAMP V12.0
#
DISCID=bf09090e
DTITLE=Nancy Sinatra - Country, My Way
DYEAR=1967
DGENRE=Country
TTITLE0=It's Such a Pretty World Today
TTITLE1=Get While The Gettin's Good
TTITLE2=Walk Through This World With me
TTITLE3=Jackson
TTITLE4=When It's Over
TTITLE5=Lay Some Happiness on me
TTITLE6=Lonely Again
TTITLE7=By The Way (I Still Love You)
TTITLE8=Oh Lonesome me
TTITLE9=End of The World
TTITLE10=Help Stamp Out Loneliness
TTITLE11=Highway Song
TTITLE12=Hello L.A., Bye Bye Birmingham
TTITLE13=Are You Growing Tired of my Love
EXTD=
EXTT0=
EXTT1=
EXTT2=
EXTT3=
EXTT4=
EXTT5=
EXTT6=
EXTT7=
EXTT8=
EXTT9=
EXTT10=
EXTT11=
EXTT12=
EXTT13=
PLAYORDER=
